<svg id="dribbble" class="socials" xmlns="http://www.w3.org/2000/svg" viewBox="0 0 16 16"><path fill="#fff" d="M14.426 5.284a7.149 7.149 0 00-.65-1.186 7.598 7.598 0 00-.842-1.032c-.306-.306-.65-.612-1.032-.842a7.149 7.149 0 00-1.186-.65c-.42-.191-.88-.306-1.3-.421C8.955 1.077 8.496 1 8 1c-.459 0-.956.038-1.415.153-.46.077-.88.23-1.3.42-.422.192-.804.383-1.187.651a7.598 7.598 0 00-1.032.842c-.306.306-.612.65-.842 1.032a7.149 7.149 0 00-.65 1.186c-.191.42-.306.88-.421 1.3C1.077 7.045 1 7.504 1 8c0 .459.038.956.153 1.415.077.46.23.88.42 1.3.192.422.383.804.651 1.187.268.382.536.726.842 1.032.306.306.65.612 1.032.842.383.268.765.459 1.186.65.42.191.88.306 1.3.421.46.115.919.153 1.416.153.459 0 .956-.038 1.415-.153.46-.077.88-.23 1.3-.42.422-.192.804-.383 1.187-.651a7.598 7.598 0 001.032-.842c.306-.306.612-.65.842-1.032.268-.383.459-.765.65-1.186.191-.42.306-.88.421-1.3.076-.46.153-.919.153-1.416 0-.459-.038-.956-.153-1.415-.115-.421-.23-.88-.42-1.3zM7.962 2.033c1.53 0 2.907.574 3.94 1.492 0 .038-.88 1.338-3.137 2.18C7.732 3.83 6.623 2.339 6.508 2.224a6.602 6.602 0 011.454-.191zm-1.416.153c0 .038 0 .038 0 0 0 .038 0 .038 0 0-.038.038 0 .038 0 0zm-1.147.42c.076.115 1.186 1.607 2.218 3.443-2.868.765-5.355.727-5.546.727.42-1.836 1.683-3.366 3.328-4.17zm-1.874 9.41A5.95 5.95 0 011.995 8v-.191c.114 0 3.06.076 6.158-.842.153.344.344.689.497 1.033-.076.038-.153.038-.23.076-3.25 1.033-4.895 3.94-4.895 3.94zm4.437 1.99a6.099 6.099 0 01-3.749-1.301c-.038 0-.038-.038-.076-.077l.076.077a.118.118 0 00.077.038s1.147-2.486 4.705-3.748h.038c.841 2.18 1.186 4.016 1.262 4.551-.688.306-1.492.46-2.333.46zm3.366-1.033c-.077-.345-.383-2.104-1.148-4.284 1.951-.306 3.596.229 3.749.267-.306 1.683-1.262 3.137-2.601 4.017zM9.798 7.77c-.038-.114-.077-.19-.115-.306-.115-.306-.268-.573-.382-.88 2.371-.956 3.327-2.37 3.327-2.37a6.166 6.166 0 011.377 3.748c-.114-.039-2.142-.46-4.207-.192z"/></svg>
