<svg id="instagram" class="socials" xmlns="http://www.w3.org/2000/svg" viewBox="0 0 16 16"><path fill="#fff" d="M13.322 1.004H2.683c-.915 0-1.677.724-1.677 1.64V13.32c0 .915.762 1.64 1.677 1.64h10.64c.914 0 1.677-.725 1.677-1.64V2.643c-.038-.877-.763-1.64-1.678-1.64zm-2.288 2.211c0-.229.19-.42.42-.42h1.296c.229 0 .42.191.42.42v1.297c0 .229-.191.42-.42.42h-1.296a.423.423 0 01-.42-.42zm-3.05 2.136c1.487 0 2.707 1.182 2.707 2.669s-1.22 2.67-2.707 2.67a2.653 2.653 0 01-2.67-2.67 2.653 2.653 0 012.67-2.67zm5.799 7.893c0 .229-.19.42-.42.42H2.76a.423.423 0 01-.42-.42V6.685h1.754c-.229.343-.305.954-.305 1.335 0 2.326 1.907 4.233 4.271 4.233s4.27-1.907 4.27-4.233c0-.381-.037-.992-.342-1.335h1.754z"/></svg>
