<svg height="16" width="16" xmlns="http://www.w3.org/2000/svg"><g fill="#222" style="fill:#fff"><path d="M8 5C6.355 5 5 6.355 5 8s1.355 3 3 3 3-1.355 3-3-1.355-3-3-3zm0 2c.563 0 1 .438 1 1s-.438 1-1 1-1-.438-1-1 .438-1 1-1zM3 1s-.457-.016-.95.23C1.563 1.477 1 2.168 1 3v3h2V3h3V1zM10 1v2h3v3h2V3c0-.832-.563-1.523-1.05-1.77C13.456.984 13 1 13 1zM1 10v3c0 .832.563 1.523 1.05 1.77.493.246.95.23.95.23h3v-2H3v-3zM13 10v3h-3v2h3s.457.016.95-.23c.488-.247 1.05-.938 1.05-1.77v-3zm0 0" style="fill:#fff"/></g></svg>