<svg id="twitch" class="socials" xmlns="http://www.w3.org/2000/svg" viewBox="0 0 16 16"><g fill="#f6f5f4"><path d="M3.183 2.287v8.923H6.25v1.69l.1-.091c.516-.5 1.035-1 1.549-1.502a.325.325 0 01.25-.1c1.073.003 2.144.003 3.216-.003.078 0 .176-.04.232-.094.67-.638 1.33-1.284 1.996-1.925a.306.306 0 00.102-.244c-.003-2.166-.003-4.331-.003-6.498v-.156H3.182zm1.33 12.703v-1.671h-3.49c-.004-.07-.01-.125-.01-.18 0-3.143 0-6.286.002-9.43 0-.09.018-.185.047-.271.256-.76.521-1.516.777-2.275.033-.1.076-.135.188-.135 4.271.004 8.542.003 12.814.003h.143v.174c0 2.71 0 5.42.002 8.13a.34.34 0 01-.116.27 1110.46 1110.46 0 00-3.71 3.597.36.36 0 01-.28.113c-.75-.006-1.503 0-2.255-.007a.445.445 0 00-.349.138c-.496.491-1 .976-1.504 1.458-.048.046-.124.092-.187.093-.672.006-1.344.003-2.015.003-.015 0-.03-.005-.057-.01"/><path d="M7.993 4.858V8.63H6.697V4.86h1.296m3.487 3.775h-1.273V4.858h1.273v3.776"/></g></svg>
