<svg id="vimeo" class="socials"  xmlns="http://www.w3.org/2000/svg" viewBox="0 0 16 16"><path fill="#fff" d="M12.966 2.014C11.021 1.938 9.725 3.044 9 5.256a2.517 2.517 0 011.03-.229c.724 0 1.03.381.953 1.182-.038.496-.343 1.183-.953 2.098C9.458 9.222 9 9.68 8.695 9.68c-.382 0-.725-.687-1.03-2.098-.114-.42-.305-1.449-.572-3.165-.267-1.564-.915-2.289-2.021-2.212-.458.038-1.144.457-2.06 1.258-.686.61-1.335 1.183-2.021 1.793l.648.839c.61-.42.992-.648 1.106-.648.496 0 .916.762 1.335 2.25.381 1.373.763 2.746 1.144 4.08.572 1.488 1.259 2.213 2.06 2.213 1.335 0 2.936-1.22 4.843-3.662 1.831-2.326 2.784-4.157 2.86-5.53.115-1.792-.571-2.708-2.02-2.784z"/></svg>
