<svg xmlns="http://www.w3.org/2000/svg" width="320" height="320"><g color="#000" fill="#fff"><rect ry="0" rx="0" y="34" x="84" height="252" width="174.066" style="marker:none" overflow="visible"/><rect ry="0" rx="0" y="136" x="30" height="42" width="6" style="marker:none" overflow="visible"/><rect ry="0" rx="0" y="178" x="36" height="6" width="18" style="marker:none" overflow="visible"/><rect ry="0" rx="0" y="130" x="36" height="12" width="6" style="marker:none" overflow="visible"/><rect style="marker:none" width="6" height="12" x="42" y="124" rx="0" ry="0" overflow="visible"/><rect ry="0" rx="0" y="70" x="48" height="60" width="6" style="marker:none" overflow="visible"/><rect style="marker:none" width="6" height="24" x="54" y="52" rx="0" ry="0" overflow="visible"/><rect ry="0" rx="0" y="45" x="60" height="13" width="6" style="marker:none" overflow="visible"/><rect style="marker:none" width="6" height="13" x="66" y="39" rx="0" ry="0" overflow="visible"/><rect ry="0" rx="0" y="39" x="72" height="7" width="12" style="marker:none" overflow="visible"/><rect ry="0" rx="0" y="64" x="276" height="198" width="6" style="marker:none" overflow="visible"/><rect style="marker:none" width="6" height="12" x="36" y="172" rx="0" ry="0" overflow="visible"/><rect style="marker:none" width="6" height="108" x="48" y="178" rx="0" ry="0" overflow="visible"/><rect ry="0" rx="0" y="280" x="54" height="6" width="30" style="marker:none" overflow="visible"/><rect style="marker:none" width="6" height="6" x="258" y="274" rx="0" ry="0" overflow="visible"/><rect ry="0" rx="0" y="268" x="264" height="12" width="6" style="marker:none" overflow="visible"/><rect style="marker:none" width="6" height="10" x="270" y="264" rx="0" ry="0" overflow="visible"/><rect style="marker:none" width="6" height="36" x="281.967" y="118" rx="0" ry="0" overflow="visible"/><rect style="marker:none" width="6" height="18" x="270" y="52" rx="0" ry="0" overflow="visible"/><rect ry="0" rx="0" y="46" x="264" height="12" width="6" style="marker:none" overflow="visible"/><rect style="marker:none" width="6" height="12" x="258" y="40" rx="0" ry="0" overflow="visible"/><rect style="marker:none" width="221.989" height="170" x="54" y="94" rx="0" ry="0" overflow="visible"/><rect style="marker:none" width="6" height="18" x="48" y="148" rx="0" ry="0" overflow="visible"/></g><g color="#000"><rect style="marker:none" width="6" height="6" x="108" y="124" rx="0" ry="0" overflow="visible"/><rect ry="0" rx="0" y="112" x="108" height="6" width="6" style="marker:none" overflow="visible"/><rect style="marker:none" width="6" height="6" x="108" y="100" rx="0" ry="0" overflow="visible"/><rect ry="0" rx="0" y="88" x="108" height="6" width="6" style="marker:none" overflow="visible"/><rect style="marker:none" width="6" height="6" x="114" y="82" rx="0" ry="0" overflow="visible"/><rect ry="0" rx="0" y="76" x="120" height="6" width="6" style="marker:none" overflow="visible"/><rect style="marker:none" width="6" height="6" x="126" y="70" rx="0" ry="0" overflow="visible"/><rect ry="0" rx="0" y="76" x="132" height="6" width="6" style="marker:none" overflow="visible"/><rect style="marker:none" width="6" height="6" x="132" y="64" rx="0" ry="0" overflow="visible"/><rect ry="0" rx="0" y="58" x="138" height="6" width="6" style="marker:none" overflow="visible"/><rect style="marker:none" width="6" height="6" x="144" y="64" rx="0" ry="0" overflow="visible"/><rect ry="0" rx="0" y="58" x="150" height="6" width="6" style="marker:none" overflow="visible"/><rect style="marker:none" width="30" height="6" x="162" y="106" rx="0" ry="0" overflow="visible"/><rect ry="0" rx="0" y="100" x="174" height="6" width="18" style="marker:none" overflow="visible"/><rect ry="0" rx="0" y="118" x="138" height="6" width="60" style="marker:none" overflow="visible"/><rect ry="0" rx="0" y="64" x="180" height="6" width="6" style="marker:none" overflow="visible"/><rect style="marker:none" width="36" height="6" x="192" y="64" rx="0" ry="0" overflow="visible"/><rect ry="0" rx="0" y="70" x="198" height="6" width="6" style="marker:none" overflow="visible"/><rect style="marker:none" width="6" height="6" x="210" y="70" rx="0" ry="0" overflow="visible"/><rect ry="0" rx="0" y="70" x="222" height="6" width="6" style="marker:none" overflow="visible"/><rect ry="0" rx="0" y="64" x="234" height="6" width="6" style="marker:none" overflow="visible"/><rect style="marker:none" width="6" height="6" x="210" y="100" rx="0" ry="0" overflow="visible"/><rect ry="0" rx="0" y="100" x="222" height="6" width="12" style="marker:none" overflow="visible"/><rect style="marker:none" width="36" height="6" x="216" y="106" rx="0" ry="0" overflow="visible"/><rect style="marker:none" width="54" height="6" x="222" y="118" rx="0" ry="0" overflow="visible"/><rect ry="0" rx="0" y="70" x="258" height="48" width="18" style="marker:none" overflow="visible"/><rect style="marker:none" width="6" height="6" x="252" y="70" rx="0" ry="0" overflow="visible"/><rect ry="0" rx="0" y="58" x="246" height="12" width="24" style="marker:none" overflow="visible"/><rect style="marker:none" width="6" height="6" x="240" y="58" rx="0" ry="0" overflow="visible"/><rect ry="0" rx="0" y="52" x="258" height="6" width="6" style="marker:none" overflow="visible"/><rect style="marker:none" width="6" height="12" x="252" y="46" rx="0" ry="0" overflow="visible"/><rect ry="0" rx="0" y="40" x="90" height="18" width="162" style="marker:none" overflow="visible"/><rect ry="0" rx="0" y="46" x="72" height="6" width="18" style="marker:none" overflow="visible"/><rect style="marker:none" width="24" height="6" x="66" y="52" rx="0" ry="0" overflow="visible"/><rect ry="0" rx="0" y="58" x="60" height="54" width="48" style="marker:none" overflow="visible"/><rect style="marker:none" width="6" height="6" x="126" y="58" rx="0" ry="0" overflow="visible"/><rect ry="0" rx="0" y="58" x="108" height="12" width="18" style="marker:none" overflow="visible"/><rect style="marker:none" width="6" height="6" x="114" y="70" rx="0" ry="0" overflow="visible"/><rect ry="0" rx="0" y="70" x="108" height="12" width="6" style="marker:none" overflow="visible"/><rect style="marker:none" width="72" height="6" x="162" y="58" rx="0" ry="0" overflow="visible"/><rect style="marker:none" width="6" height="66" x="54" y="76" rx="0" ry="0" overflow="visible"/><rect style="marker:none" width="6" height="6" x="96" y="112" rx="0" ry="0" overflow="visible"/><rect ry="0" rx="0" y="112" x="60" height="12" width="36" style="marker:none" overflow="visible"/><rect style="marker:none" width="12" height="18" x="60" y="124" rx="0" ry="0" overflow="visible"/><rect ry="0" rx="0" y="136" x="108" height="6" width="6" style="marker:none" overflow="visible"/><rect style="marker:none" width="6" height="6" x="108" y="148" rx="0" ry="0" overflow="visible"/><rect ry="0" rx="0" y="130" x="72" height="6" width="36" style="marker:none" overflow="visible"/><rect style="marker:none" width="18" height="18" x="78" y="136" rx="0" ry="0" overflow="visible"/><rect ry="0" rx="0" y="154" x="84" height="6" width="6" style="marker:none" overflow="visible"/><rect style="marker:none" width="6" height="12" x="78" y="154" rx="0" ry="0" overflow="visible"/><rect ry="0" rx="0" y="148" x="60" height="18" width="6" style="marker:none" overflow="visible"/><rect ry="0" rx="0" y="154" x="54" height="6" width="6" style="marker:none" overflow="visible"/><rect style="marker:none" width="6" height="18" x="48" y="130" rx="0" ry="0" overflow="visible"/><rect ry="0" rx="0" y="136" x="42" height="42" width="6" style="marker:none" overflow="visible"/><rect style="marker:none" width="6" height="30" x="36" y="142" rx="0" ry="0" overflow="visible"/><rect style="marker:none" width="6" height="12" x="48" y="166" rx="0" ry="0" overflow="visible"/><rect ry="0" rx="0" y="172" x="54" height="108" width="18" style="marker:none" overflow="visible"/><rect style="marker:none" width="18" height="102" x="258" y="154" rx="0" ry="0" overflow="visible"/><rect ry="0" rx="0" y="148" x="270" height="6" width="6" style="marker:none" overflow="visible"/><rect style="marker:none" width="6" height="24" x="276" y="124" rx="0" ry="0" overflow="visible"/><rect style="marker:none" width="24" height="6" x="150" y="130" rx="0" ry="0" overflow="visible"/><rect ry="0" rx="0" y="136" x="156" height="6" width="12" style="marker:none" overflow="visible"/><rect style="marker:none" width="6" height="24" x="198" y="124" rx="0" ry="0" overflow="visible"/><rect style="marker:none" width="6" height="6" x="192" y="148" rx="0" ry="0" overflow="visible"/><rect ry="0" rx="0" y="148" x="222" height="6" width="6" style="marker:none" overflow="visible"/><rect style="marker:none" width="6" height="24" x="216" y="124" rx="0" ry="0" overflow="visible"/><rect style="marker:none" width="6" height="6" x="222" y="124" rx="0" ry="0" overflow="visible"/><rect ry="0" rx="0" y="130" x="228" height="12" width="12" style="marker:none" overflow="visible"/><rect style="marker:none" width="6" height="6" x="240" y="130" rx="0" ry="0" overflow="visible"/><rect style="marker:none" width="12" height="6" x="204" y="130" rx="0" ry="0" overflow="visible"/><rect ry="0" rx="0" y="160" x="108" height="6" width="6" style="marker:none" overflow="visible"/><rect style="marker:none" width="6" height="12" x="108" y="172" rx="0" ry="0" overflow="visible"/><rect style="marker:none" width="6" height="6" x="114" y="184" rx="0" ry="0" overflow="visible"/><rect ry="0" rx="0" y="190" x="108" height="6" width="6" style="marker:none" overflow="visible"/><rect style="marker:none" width="6" height="6" x="114" y="196" rx="0" ry="0" overflow="visible"/><rect style="marker:none" width="6" height="6" x="120" y="202" rx="0" ry="0" overflow="visible"/><rect style="marker:none" width="6" height="6" x="114" y="208" rx="0" ry="0" overflow="visible"/><rect style="marker:none" width="6" height="6" x="108" y="202" rx="0" ry="0" overflow="visible"/><rect style="marker:none" width="6" height="6" x="120" y="214" rx="0" ry="0" overflow="visible"/><rect style="marker:none" width="6" height="6" x="126" y="220" rx="0" ry="0" overflow="visible"/><rect style="marker:none" width="6" height="6" x="114" y="220" rx="0" ry="0" overflow="visible"/><rect style="marker:none" width="6" height="6" x="108" y="214" rx="0" ry="0" overflow="visible"/><rect style="marker:none" width="6" height="6" x="102" y="214" rx="0" ry="0" overflow="visible"/><rect style="marker:none" width="6" height="6" x="108" y="220" rx="0" ry="0" overflow="visible"/><rect style="marker:none" width="6" height="6" x="96" y="208" rx="0" ry="0" overflow="visible"/><rect style="marker:none" width="6" height="6" x="90" y="214" rx="0" ry="0" overflow="visible"/><rect style="marker:none" width="6" height="6" x="96" y="220" rx="0" ry="0" overflow="visible"/><rect style="marker:none" width="6" height="6" x="84" y="220" rx="0" ry="0" overflow="visible"/><rect style="marker:none" width="6" height="6" x="102" y="226" rx="0" ry="0" overflow="visible"/><rect style="marker:none" width="6" height="6" x="108" y="226" rx="0" ry="0" overflow="visible"/><rect style="marker:none" width="6" height="6" x="120" y="226" rx="0" ry="0" overflow="visible"/><rect style="marker:none" width="6" height="6" x="132" y="226" rx="0" ry="0" overflow="visible"/><rect style="marker:none" width="6" height="6" x="78" y="226" rx="0" ry="0" overflow="visible"/><rect style="marker:none" width="6" height="6" x="90" y="226" rx="0" ry="0" overflow="visible"/><rect ry="0" rx="0" y="214" x="150" height="6" width="6" style="marker:none" overflow="visible"/><rect ry="0" rx="0" y="214" x="162" height="6" width="6" style="marker:none" overflow="visible"/><rect ry="0" rx="0" y="220" x="156" height="6" width="6" style="marker:none" overflow="visible"/><rect ry="0" rx="0" y="220" x="162" height="6" width="6" style="marker:none" overflow="visible"/><rect ry="0" rx="0" y="220" x="168" height="6" width="6" style="marker:none" overflow="visible"/><rect ry="0" rx="0" y="226" x="162" height="6" width="6" style="marker:none" overflow="visible"/><rect ry="0" rx="0" y="226" x="168" height="6" width="6" style="marker:none" overflow="visible"/><rect ry="0" rx="0" y="226" x="174" height="6" width="6" style="marker:none" overflow="visible"/><rect ry="0" rx="0" y="226" x="150" height="6" width="6" style="marker:none" overflow="visible"/><rect ry="0" rx="0" y="226" x="144" height="6" width="6" style="marker:none" overflow="visible"/><rect style="marker:none" width="6" height="6" x="84" y="232" rx="0" ry="0" overflow="visible"/><rect style="marker:none" width="6" height="6" x="78" y="238" rx="0" ry="0" overflow="visible"/><rect style="marker:none" width="6" height="6" x="78" y="250" rx="0" ry="0" overflow="visible"/><rect style="marker:none" width="6" height="6" x="84" y="256" rx="0" ry="0" overflow="visible"/><rect style="marker:none" width="6" height="6" x="96" y="256" rx="0" ry="0" overflow="visible"/><rect style="marker:none" width="6" height="6" x="144" y="250" rx="0" ry="0" overflow="visible"/><rect style="marker:none" width="6" height="6" x="156" y="250" rx="0" ry="0" overflow="visible"/><rect style="marker:none" width="6" height="6" x="150" y="238" rx="0" ry="0" overflow="visible"/><rect style="marker:none" width="6" height="6" x="162" y="238" rx="0" ry="0" overflow="visible"/><rect style="marker:none" width="6" height="6" x="168" y="238" rx="0" ry="0" overflow="visible"/><rect style="marker:none" width="6" height="6" x="168" y="232" rx="0" ry="0" overflow="visible"/><rect style="marker:none" width="6" height="6" x="174" y="232" rx="0" ry="0" overflow="visible"/><rect style="marker:none" width="6" height="6" x="180" y="238" rx="0" ry="0" overflow="visible"/><rect ry="0" rx="0" y="244" x="174" height="6" width="18" style="marker:none" overflow="visible"/><rect ry="0" rx="0" y="232" x="96" height="6" width="6" style="marker:none" overflow="visible"/><rect ry="0" rx="0" y="238" x="90" height="6" width="6" style="marker:none" overflow="visible"/><rect ry="0" rx="0" y="244" x="96" height="6" width="6" style="marker:none" overflow="visible"/><rect ry="0" rx="0" y="238" x="102" height="6" width="6" style="marker:none" overflow="visible"/><rect ry="0" rx="0" y="238" x="120" height="6" width="6" style="marker:none" overflow="visible"/><rect ry="0" rx="0" y="232" x="126" height="6" width="6" style="marker:none" overflow="visible"/><rect ry="0" rx="0" y="238" x="132" height="6" width="6" style="marker:none" overflow="visible"/><rect ry="0" rx="0" y="232" x="138" height="6" width="6" style="marker:none" overflow="visible"/><rect ry="0" rx="0" y="238" x="144" height="6" width="6" style="marker:none" overflow="visible"/><rect ry="0" rx="0" y="244" x="138" height="6" width="6" style="marker:none" overflow="visible"/><rect ry="0" rx="0" y="244" x="126" height="6" width="6" style="marker:none" overflow="visible"/><rect ry="0" rx="0" y="250" x="132" height="6" width="6" style="marker:none" overflow="visible"/><rect ry="0" rx="0" y="250" x="102" height="6" width="6" style="marker:none" overflow="visible"/><rect ry="0" rx="0" y="250" x="90" height="6" width="6" style="marker:none" overflow="visible"/><rect ry="0" rx="0" y="244" x="84" height="6" width="6" style="marker:none" overflow="visible"/><rect style="marker:none" width="12" height="6" x="150" y="232" rx="0" ry="0" overflow="visible"/><rect ry="0" rx="0" y="190" x="156" height="24" width="6" style="marker:none" overflow="visible"/><rect style="marker:none" width="18" height="6" x="150" y="244" rx="0" ry="0" overflow="visible"/><rect ry="0" rx="0" y="130" x="114" height="6" width="24" style="marker:none" overflow="visible"/><rect ry="0" rx="0" y="124" x="132" height="24" width="6" style="marker:none" overflow="visible"/><rect ry="0" rx="0" y="148" x="138" height="6" width="6" style="marker:none" overflow="visible"/><rect style="marker:none" width="12" height="6" x="198" y="166" rx="0" ry="0" overflow="visible"/><rect style="marker:none" width="6" height="6" x="174" y="178" rx="0" ry="0" overflow="visible"/><rect style="marker:none" width="6" height="6" x="186" y="178" rx="0" ry="0" overflow="visible"/><rect style="marker:none" width="6" height="6" x="198" y="178" rx="0" ry="0" overflow="visible"/><rect style="marker:none" width="6" height="6" x="210" y="178" rx="0" ry="0" overflow="visible"/><rect style="marker:none" width="6" height="6" x="216" y="184" rx="0" ry="0" overflow="visible"/><rect style="marker:none" width="6" height="6" x="204" y="184" rx="0" ry="0" overflow="visible"/><rect style="marker:none" width="6" height="6" x="192" y="184" rx="0" ry="0" overflow="visible"/><rect style="marker:none" width="6" height="6" x="180" y="184" rx="0" ry="0" overflow="visible"/><rect style="marker:none" width="6" height="6" x="186" y="190" rx="0" ry="0" overflow="visible"/><rect style="marker:none" width="6" height="6" x="198" y="190" rx="0" ry="0" overflow="visible"/><rect style="marker:none" width="6" height="6" x="210" y="190" rx="0" ry="0" overflow="visible"/><rect ry="0" rx="0" y="196" x="222" height="6" width="6" style="marker:none" overflow="visible"/><rect ry="0" rx="0" y="184" x="168" height="12" width="6" style="marker:none" overflow="visible"/><rect ry="0" rx="0" y="196" x="174" height="6" width="6" style="marker:none" overflow="visible"/><rect style="marker:none" width="42" height="6" x="180" y="202" rx="0" ry="0" overflow="visible"/><rect ry="0" rx="0" y="214" x="186" height="6" width="30" style="marker:none" overflow="visible"/><rect style="marker:none" width="18" height="6" x="192" y="220" rx="0" ry="0" overflow="visible"/><rect ry="0" rx="0" y="202" x="240" height="18" width="6" style="marker:none" overflow="visible"/><rect style="marker:none" width="6" height="24" x="234" y="214" rx="0" ry="0" overflow="visible"/><rect style="marker:none" width="6" height="6" x="240" y="226" rx="0" ry="0" overflow="visible"/><rect style="marker:none" width="6" height="6" x="246" y="220" rx="0" ry="0" overflow="visible"/><rect style="marker:none" width="6" height="6" x="246" y="232" rx="0" ry="0" overflow="visible"/><rect style="marker:none" width="6" height="6" x="240" y="238" rx="0" ry="0" overflow="visible"/><rect style="marker:none" width="6" height="6" x="246" y="244" rx="0" ry="0" overflow="visible"/><rect style="marker:none" width="6" height="6" x="234" y="244" rx="0" ry="0" overflow="visible"/><rect style="marker:none" width="6" height="6" x="240" y="250" rx="0" ry="0" overflow="visible"/><rect style="marker:none" width="6" height="6" x="252" y="238" rx="0" ry="0" overflow="visible"/><rect style="marker:none" width="6" height="6" x="252" y="226" rx="0" ry="0" overflow="visible"/><rect style="marker:none" width="6" height="18" x="228" y="226" rx="0" ry="0" overflow="visible"/><rect ry="0" rx="0" y="238" x="222" height="12" width="6" style="marker:none" overflow="visible"/><rect style="marker:none" width="6" height="6" x="228" y="250" rx="0" ry="0" overflow="visible"/><rect style="marker:none" width="6" height="6" x="252" y="250" rx="0" ry="0" overflow="visible"/><rect ry="0" rx="0" y="244" x="210" height="18" width="6" style="marker:none" overflow="visible"/><rect ry="0" rx="0" y="250" x="192" height="6" width="30" style="marker:none" overflow="visible"/><rect ry="0" rx="0" y="244" x="198" height="6" width="6" style="marker:none" overflow="visible"/><rect style="marker:none" width="6" height="6" x="168" y="250" rx="0" ry="0" overflow="visible"/><rect style="marker:none" width="198" height="18" x="54" y="262" rx="0" ry="0" overflow="visible"/><rect ry="0" rx="0" y="256" x="222" height="12" width="48" style="marker:none" overflow="visible"/><rect style="marker:none" width="12" height="6" x="252" y="268" rx="0" ry="0" overflow="visible"/><rect ry="0" rx="0" y="232" x="108" height="30" width="12" style="marker:none" overflow="visible"/><rect style="marker:none" width="6" height="6" x="120" y="250" rx="0" ry="0" overflow="visible"/><rect ry="0" rx="0" y="256" x="120" height="6" width="24" style="marker:none" overflow="visible"/><rect style="marker:none" width="18" height="6" x="150" y="256" rx="0" ry="0" overflow="visible"/><rect ry="0" rx="0" y="256" x="174" height="6" width="30" style="marker:none" overflow="visible"/><rect ry="0" rx="0" y="250" x="180" height="6" width="6" style="marker:none" overflow="visible"/></g></svg>